<svg width="65" height="90" viewBox="0 0 65 90" fill="none" xmlns="http://www.w3.org/2000/svg">
<path d="M12.3182 58.4417V58.2083L12.1392 58.0584C7.97909 54.5745 4.75304 50.0792 2.76142 44.9896C0.769794 39.9 0.0774429 34.3816 0.748923 28.9473C1.4204 23.5129 3.43383 18.3395 6.60157 13.9076C9.76928 9.47564 13.9884 5.92907 18.8664 3.59653C23.7444 1.26401 29.1235 0.220938 34.5042 0.563798C39.885 0.906658 45.0936 2.62439 49.6463 5.55804C54.1991 8.49172 57.9485 12.5464 60.5457 17.346C63.1428 22.1457 64.5032 27.5343 64.5 33.0113V33.0117C64.501 37.8006 63.4576 42.53 61.4451 46.8605C59.4326 51.1911 56.5009 55.015 52.8611 58.0581L52.6818 58.208V58.4417V86.9986C52.6818 87.6638 52.4214 88.3004 51.9603 88.7685C51.4993 89.2364 50.8758 89.4979 50.2273 89.4978L50.2218 89.4979C49.8449 89.502 49.4718 89.4186 49.1309 89.2537C49.1297 89.2531 49.1285 89.2525 49.1273 89.2519L32.7263 80.9291L32.5002 80.8144L32.2741 80.9289L15.869 89.2369L15.8684 89.2372C15.4946 89.427 15.0797 89.5165 14.6629 89.4975C14.2461 89.4785 13.8405 89.3516 13.4847 89.1283C13.1289 88.9049 12.8344 88.5923 12.6299 88.2196C12.4253 87.8468 12.3179 87.4266 12.3182 86.9989V86.9986V58.4417ZM11.8182 58.4417V86.9986C11.8178 87.5101 11.9463 88.0132 12.1915 88.4601C12.4367 88.907 12.7904 89.2828 13.2189 89.5518C13.6475 89.8208 14.1367 89.974 14.6401 89.997C15.1435 90.0199 15.6443 89.9118 16.0949 89.6829L32.5 81.3749L11.8182 58.4417ZM5.40909 33.0116L5.40909 33.0122C5.41706 40.2989 8.27198 47.2863 13.3498 52.441C18.4279 57.596 25.3146 60.497 32.4994 60.5051H32.5C37.8598 60.5051 43.0985 58.8917 47.5538 55.8697C52.009 52.8478 55.4802 48.5534 57.5297 43.5305C59.5792 38.5076 60.1154 32.9811 59.0706 27.6493C58.0259 22.3175 55.447 17.419 51.6588 13.5735C47.8706 9.72788 43.0432 7.10813 37.7866 6.04671C32.53 4.98527 27.0814 5.53011 22.1303 7.61199C17.1792 9.69383 12.9487 13.2188 9.97282 17.7399C6.99699 22.261 5.40909 27.5756 5.40909 33.0116ZM47.0465 82.5931L47.7727 82.9617V82.1473V62.3933V61.5705L47.0424 61.9495C42.5399 64.2856 37.5559 65.5036 32.5 65.5036C27.4441 65.5036 22.4601 64.2856 17.9576 61.9495L17.2273 61.5705V62.3933V82.1473V82.9619L17.9536 82.5931L31.4005 75.766L31.4006 75.7659C31.7411 75.5929 32.1162 75.5031 32.4963 75.5031C32.8764 75.5031 33.2515 75.5929 33.592 75.7659L33.5922 75.766L47.0465 82.5931ZM43.7095 50.0545C40.391 52.3054 36.4902 53.5064 32.5005 53.5065C27.152 53.5007 22.0227 51.3414 18.2384 47.4998C14.4539 43.658 12.3239 38.4474 12.3182 33.0111C12.3183 28.9561 13.5029 24.9928 15.7213 21.6224C17.9399 18.2519 21.0923 15.626 24.7792 14.0757C28.466 12.5255 32.5225 12.12 36.4359 12.9102C40.3493 13.7004 43.9451 15.6511 46.768 18.5169C49.5911 21.3827 51.5145 25.0348 52.2938 29.0119C53.0731 32.989 52.673 37.1112 51.1446 40.8571C49.6161 44.603 47.0283 47.8034 43.7095 50.0545ZM40.988 20.1288C38.4762 18.4251 35.5223 17.5152 32.5 17.5152C28.447 17.5152 24.5615 19.1497 21.6979 22.0567C18.8346 24.9634 17.2273 28.9041 17.2273 33.0116C17.2273 36.0749 18.122 39.0699 19.7993 41.6181C21.4766 44.1663 23.8613 46.1536 26.6529 47.3274C29.4446 48.5012 32.5169 48.8085 35.481 48.21C38.445 47.6114 41.1667 46.1343 43.3021 43.9665C45.4374 41.7989 46.8908 39.038 47.4795 36.0334C48.0683 33.0289 47.7662 29.9145 46.6112 27.0839C45.4561 24.2531 43.4996 21.8325 40.988 20.1288Z" fill="black" stroke="white"/>
</svg>
