<svg width="20" height="12" viewBox="0 0 20 12" fill="none" xmlns="http://www.w3.org/2000/svg">
<path d="M0.200195 6C1.12139 4.19302 2.52424 2.67591 4.25372 1.61634C5.98319 0.556774 7.97195 -0.0039978 10.0002 -0.0039978C12.0284 -0.0039978 14.0172 0.556774 15.7467 1.61634C17.4762 2.67591 18.879 4.19302 19.8002 6C18.879 7.80699 17.4762 9.32409 15.7467 10.3837C14.0172 11.4432 12.0284 12.004 10.0002 12.004C7.97195 12.004 5.98319 11.4432 4.25372 10.3837C2.52424 9.32409 1.12139 7.80699 0.200195 6ZM10.0002 10C11.0611 10 12.0785 9.57858 12.8286 8.82843C13.5788 8.07829 14.0002 7.06087 14.0002 6C14.0002 4.93914 13.5788 3.92172 12.8286 3.17158C12.0785 2.42143 11.0611 2 10.0002 2C8.93933 2 7.92191 2.42143 7.17177 3.17158C6.42162 3.92172 6.0002 4.93914 6.0002 6C6.0002 7.06087 6.42162 8.07829 7.17177 8.82843C7.92191 9.57858 8.93933 10 10.0002 10ZM10.0002 8C9.46976 8 8.96105 7.78929 8.58598 7.41422C8.21091 7.03914 8.0002 6.53044 8.0002 6C8.0002 5.46957 8.21091 4.96086 8.58598 4.58579C8.96105 4.21072 9.46976 4 10.0002 4C10.5306 4 11.0393 4.21072 11.4144 4.58579C11.7895 4.96086 12.0002 5.46957 12.0002 6C12.0002 6.53044 11.7895 7.03914 11.4144 7.41422C11.0393 7.78929 10.5306 8 10.0002 8Z" fill="black"/>
</svg>
